<mxfile host="app.diagrams.net" modified="2023-12-10T00:11:57.643Z" agent="Mozilla/5.0 (Windows NT 10.0; Win64; x64) AppleWebKit/537.36 (KHTML, like Gecko) Chrome/120.0.0.0 Safari/537.36" version="22.1.7" etag="T9L4r-zerRjm1tJnp620" type="github">
  <diagram name="Page-1" id="5VOHhA44fthN6W-j9cQ1">
    <mxGraphModel>
      <root>
        <mxCell id="0" />
        <mxCell id="1" parent="0" />
      </root>
    </mxGraphModel>
  </diagram>
</mxfile>
